<?xml version="1.0" standalone="no"?>
<!DOCTYPE svg PUBLIC "-//W3C//DTD SVG 20010904//EN"
 "http://www.w3.org/TR/2001/REC-SVG-20010904/DTD/svg10.dtd">
<svg version="1.0" xmlns="http://www.w3.org/2000/svg"
 width="330.000000pt" height="592.000000pt" viewBox="0 0 330.000000 592.000000"
 preserveAspectRatio="xMidYMid meet">
<metadata>
Created by potrace 1.15, written by Peter Selinger 2001-2017
</metadata>
<g transform="translate(0.000000,592.000000) scale(0.100000,-0.100000)"
fill="#DF0000" stroke="none">
<path d="M516 5783 c-9 -10 -7 -74 5 -138 23 -128 88 -232 263 -430 139 -156
163 -198 181 -319 23 -151 55 -234 144 -370 26 -40 58 -106 71 -145 20 -64 22
-85 17 -179 -4 -59 -12 -123 -18 -142 -7 -19 -43 -77 -80 -129 -183 -257 -294
-548 -344 -906 -21 -146 -29 -383 -17 -512 9 -98 8 -124 -9 -200 -38 -172
-105 -343 -240 -612 l-88 -174 87 7 c166 13 323 48 442 100 13 5 15 -32 13
-306 -5 -633 -41 -937 -138 -1178 -19 -46 -32 -86 -29 -89 7 -7 89 35 168 86
230 149 391 396 522 803 25 77 49 140 53 140 4 0 33 -9 65 -20 137 -47 308
-46 451 2 427 143 754 667 831 1333 20 170 14 494 -11 655 -45 288 -149 580
-279 783 -81 126 -127 284 -133 458 -6 148 -1 170 81 330 l53 104 139 62 c76
34 159 71 184 82 l45 19 -162 1 c-116 1 -163 4 -163 12 0 9 45 10 166 6 91 -3
162 -1 158 3 -5 4 -85 58 -179 120 l-170 111 -21 62 c-125 369 -504 600 -896
548 -96 -13 -179 -39 -314 -100 -124 -56 -202 -74 -309 -75 -156 0 -318 54
-467 157 -36 25 -69 43 -72 40z m1597 -463 c68 -76 -6 -186 -108 -159 -61 17
-91 83 -64 142 29 64 122 73 172 17z m-288 -2295 c9 -288 0 -402 -41 -564 -27
-108 -82 -229 -145 -323 -44 -64 -172 -198 -209 -218 -11 -6 26 36 83 92 159
160 241 321 283 558 19 104 24 382 13 680 -4 93 -3 137 1 100 4 -36 11 -182
15 -325z"/>
</g>
</svg>
